<svg xmlns="http://www.w3.org/2000/svg" xmlns:xlink="http://www.w3.org/1999/xlink" version="1.0" viewBox="0 0 770 95"><g fill="#888" transform="matrix(.1 0 0 -.1 0 95)"><path id="c" d="M255 744c-11-3-37-10-57-15-75-19-137-101-138-179 0-57 38-119 110-178 147-120 143-116 136-140-16-48-92-54-216-18L8 237l6-46c3-25 8-71 12-103 7-67 1-64 179-74C397 3 508 43 558 140c30 58 26 123-12 180-14 22-69 72-122 111-76 56-95 74-92 92 6 46 101 61 208 33 30-8 56-13 58-11s0 44-3 93l-7 90-32 6c-43 9-276 16-301 10z"/><path d="M971 740c-192-41-304-238-261-462 31-166 139-256 320-265 72-4 224 8 235 19 6 6 36 201 32 205-2 2-17-1-32-7-16-6-63-13-104-16-61-4-83-2-110 13-59 31-76 64-76 148 0 79 13 108 67 148 35 26 128 32 208 14 36-9 66-14 68-12s1 48-3 103c-7 91-10 101-29 106-38 11-270 15-315 6z"/><path id="a" d="M1750 745c-8-2-55-9-105-15-49-7-97-16-106-21-11-5-18-28-22-69-4-33-9-71-13-84l-6-24 92 29c118 38 229 49 265 25 30-20 33-56 7-79-10-9-68-28-128-41-197-44-272-84-313-169-47-96-7-208 91-258 45-23 145-35 211-25l46 7 24 73 24 72-53-4c-63-5-104 15-104 51 0 37 38 64 134 95l89 29-7-125c-4-69-10-138-13-154l-5-28h269l7 113c3 61 11 182 18 267 6 85 8 171 4 191-13 71-70 116-174 138-47 10-193 14-232 6z"/><path d="M2326 792c-12-258-36-680-42-730l-7-48h280l7 157c11 251 35 663 42 721l6 52h-280l-6-152z"/><path id="b" d="M2983 740c-147-31-238-121-278-277-25-97-15-206 28-289 25-48 99-109 163-134 50-20 79-23 194-24 133-1 234 8 257 22 9 6 47 192 40 198-1 1-42-9-92-22-192-49-318-14-332 94l-6 42h482l7 36c27 143-57 295-188 338-61 21-213 29-275 16zm166-164c31-17 51-54 51-96v-30h-115c-127 0-128 0-101 65 27 63 104 92 165 61z"/></g><g fill="#88ba3d" transform="matrix(.1 0 0 -.1 0 95)"><path d="M3969 741c-41-13-72-31-106-64l-33-31v84h-260v-62c0-75-17-426-26-551l-6-87h280l7 138c13 259 29 331 80 354 38 17 74 2 91-38 13-30 13-60 4-197-5-89-13-183-16-210l-6-47h272v38c0 20 5 108 10 195 12 209 37 267 114 267 14 0 36-10 48-22 20-20 21-26 14-196-3-96-9-199-12-228l-7-54h270l7 108c3 59 12 187 18 284l11 177-24 47c-19 36-36 54-71 72-101 52-250 36-329-35l-40-36-30 36c-46 56-173 84-260 58z"/><use xlink:href="#a" x="3420"/><path d="M5931 899c-62-15-116-30-118-33-3-3-8-34-10-70l-6-66h-58c-58 0-59-1-59-27 0-16-3-58-7-95l-6-68h116l-6-77c-21-265-21-308 3-357 30-63 78-87 185-93 66-4 189 8 202 20 4 5 42 191 39 195-2 1-15-2-30-8-50-18-93-12-115 16-18 23-21 41-21 119 0 51 3 113 6 139l7 46h145l6 31c3 17 6 60 6 95v64h-159l6 100c3 57 2 100-3 99s-60-14-123-30z"/><use xlink:href="#b" x="3590"/><use xlink:href="#c" x="7090"/></g></svg>